<svg xmlns="http://www.w3.org/2000/svg" viewBox="0 0 512 512" width="512" height="512" role="img" aria-labelledby="title desc">
  <title id="title">Generic Open Data App</title>
  <desc id="desc">Stilisiertes App-Fenster mit Codeklammern und verbundenen Datenpunkten</desc>
  <defs>
    <linearGradient id="bgGrad" x1="0%" y1="0%" x2="100%" y2="100%">
      <stop offset="0%" stop-color="#7eb8f7" />
      <stop offset="100%" stop-color="#3d3fa5" />
    </linearGradient>
    <filter id="shadow" x="-15%" y="-15%" width="130%" height="140%">
      <feDropShadow dx="0" dy="7" stdDeviation="10" flood-color="#000000" flood-opacity="0.3" />
    </filter>
  </defs>

  <rect width="512" height="512" rx="108" ry="108" fill="url(#bgGrad)" />
  <ellipse cx="154" cy="132" rx="170" ry="142" fill="#ffffff" fill-opacity="0.11" />

  <g fill="none" stroke="#ffffff" stroke-linecap="round" stroke-linejoin="round" filter="url(#shadow)">
    <rect x="92" y="106" width="328" height="300" rx="34" stroke-width="20" />
    <path d="M102 176h308" stroke-width="18" />
    <circle cx="137" cy="142" r="9" fill="#ffffff" stroke="none" />
    <circle cx="170" cy="142" r="9" fill="#ffffff" fill-opacity="0.9" stroke="none" />
    <circle cx="203" cy="142" r="9" fill="#ffffff" fill-opacity="0.8" stroke="none" />

    <path d="m196 230-44 46 44 46M316 230l44 46-44 46" stroke-width="24" />
    <path d="m278 218-44 116" stroke-width="20" stroke-opacity="0.9" />

    <path d="M162 362h188" stroke-width="12" stroke-opacity="0.85" />
    <circle cx="162" cy="362" r="15" fill="#ffffff" stroke="none" />
    <circle cx="256" cy="362" r="15" fill="#ffffff" stroke="none" />
    <circle cx="350" cy="362" r="15" fill="#ffffff" stroke="none" />
  </g>
</svg>
